<?xml version="1.0" encoding="UTF-8" standalone="no"?>
<svg width="66px" height="66px" viewBox="0 0 66 66" version="1.1" xmlns="http://www.w3.org/2000/svg" xmlns:xlink="http://www.w3.org/1999/xlink">
    <!-- Generator: Sketch 39.1 (31720) - http://www.bohemiancoding.com/sketch -->
    <title>Page 1</title>
    <desc>Created with Sketch.</desc>
    <defs></defs>
    <g id="Page-1" stroke="none" stroke-width="1" fill="none" fill-rule="evenodd">
        <g id="iPhone-6" transform="translate(-54.000000, -1185.000000)" fill="#FFFFFF">
            <path d="M86.6314286,1185 C68.6314491,1185 54,1199.63371 54,1217.62785 C54,1235.62199 68.6314491,1250.2557 86.6314286,1250.2557 C104.631408,1250.2557 119.262857,1235.62199 119.262857,1217.62785 C119.262857,1199.63371 104.631408,1185 86.6314286,1185 L86.6314286,1185 Z M86.6314286,1189.35038 C102.282912,1189.35038 114.934238,1201.98582 114.934238,1217.62785 C114.934238,1233.26988 102.282912,1245.88308 86.6314286,1245.88308 C70.9799451,1245.88308 58.3508571,1233.26988 58.3508571,1217.62785 C58.3508571,1201.98582 70.9799451,1189.35038 86.6314286,1189.35038 L86.6314286,1189.35038 Z M83.867184,1200.27177 C83.0588914,1200.35877 82.3260137,1200.93592 82.0543269,1201.69869 L76.253184,1217.62785 C75.7736229,1218.9349 76.8990446,1220.54744 78.2922857,1220.55034 L83.346048,1220.55034 L79.833456,1232.21999 C79.3084526,1234.84762 82.567728,1235.80373 83.7530949,1234.03265 L96.4662994,1214.47817 C97.17984,1212.8927 96.2961326,1211.15545 94.6302377,1211.12451 L91.027728,1211.12451 L96.7157486,1203.73854 C97.6139589,1202.1753 96.6509691,1200.32784 94.9928091,1200.27177 L83.867184,1200.27177 L83.867184,1200.27177 Z" id="Page-1"></path>
        </g>
    </g>
</svg>