<?xml version="1.0" encoding="UTF-8" standalone="no"?>
<svg width="8px" height="11px" viewBox="0 0 8 11" version="1.1" xmlns="http://www.w3.org/2000/svg" xmlns:xlink="http://www.w3.org/1999/xlink">
    <!-- Generator: Sketch 39.1 (31720) - http://www.bohemiancoding.com/sketch -->
    <title>Group 3</title>
    <desc>Created with Sketch.</desc>
    <defs></defs>
    <g id="Page-1" stroke="none" stroke-width="1" fill="none" fill-rule="evenodd" opacity="0.221256996">
        <g id="iPhone-6-Copy-10" transform="translate(-52.000000, -746.000000)" fill="#000000">
            <g id="Group-12" transform="translate(37.000000, 518.000000)">
                <g id="Group-10" transform="translate(15.000000, 225.000000)">
                    <g id="Group-3" transform="translate(0.000000, 3.000000)">
                        <path d="M4,10.4684874 C4,10.4684874 8,6.23450046 8,4.09033613 C8,1.94617181 6.209139,0.207983193 4,0.207983193 C1.790861,0.207983193 9.83449195e-11,2.14915966 4.54747351e-13,4.09033613 C-9.74352404e-11,6.03151261 4,10.4684874 4,10.4684874 Z M4,5.17647059 C4.73637967,5.17647059 5.33333333,4.59707438 5.33333333,3.88235294 C5.33333333,3.1676315 4.73637967,2.58823529 4,2.58823529 C3.26362033,2.58823529 2.66666667,3.1676315 2.66666667,3.88235294 C2.66666667,4.59707438 3.26362033,5.17647059 4,5.17647059 Z" id="Combined-Shape"></path>
                    </g>
                </g>
            </g>
        </g>
    </g>
</svg>