<?xml version="1.0" encoding="UTF-8" standalone="no"?>
<svg width="38px" height="38px" viewBox="0 0 38 38" version="1.1" xmlns="http://www.w3.org/2000/svg" xmlns:xlink="http://www.w3.org/1999/xlink">
    <!-- Generator: Sketch 39.1 (31720) - http://www.bohemiancoding.com/sketch -->
    <title>Page 1</title>
    <desc>Created with Sketch.</desc>
    <defs></defs>
    <g id="Page-1" stroke="none" stroke-width="1" fill="none" fill-rule="evenodd">
        <g id="iPhone-6-Copy-3" transform="translate(-100.000000, -296.000000)" fill="#DFDCDC">
            <path d="M135.036845,333.050467 L102.961444,333.050467 C100.317713,333.050467 100.13792,330.721522 100.049517,329.330965 C100.049517,329.195971 100.049517,329.018567 100.005315,328.882976 C99.8255222,327.002618 104.261209,324.582881 105.112985,324.223295 C105.471973,324.044099 106.053164,323.775306 106.81594,323.416318 C108.831889,322.43134 112.595593,320.639385 113.087783,320.191396 C113.131984,320.147194 113.176783,320.102993 113.176783,320.0122 C113.176783,319.608413 112.593203,318.803228 111.832817,318.131245 C110.936839,317.235267 109.32408,314.503132 108.561304,309.531054 C107.665326,303.662998 110.040862,300.258283 112.189416,298.419737 C115.101343,296 118.865047,296 119.000638,296 C119.179833,296 122.943537,296.044799 125.988666,298.463938 C129.080386,300.839474 130.332963,304.780581 129.616778,309.575256 C128.856392,314.547334 127.241243,317.326657 126.392453,318.175446 C125.451677,319.116223 125.003688,319.878998 125.048487,320.191396 C125.048487,320.236195 125.048487,320.236195 125.092688,320.236195 C125.675671,320.639385 129.66098,322.611133 131.81252,323.640312 C132.395503,323.908508 132.843492,324.132503 133.156487,324.312295 C133.200688,324.356497 138.172767,326.911228 137.995363,328.971976 C137.995363,329.10697 137.995363,329.240172 137.951162,329.419965 C137.860369,330.766321 137.680577,333.050467 135.036845,333.050467 L135.036845,333.050467 Z" id="Page-1"></path>
        </g>
    </g>
</svg>