<?xml version="1.0" encoding="UTF-8" standalone="no"?>
<svg width="18px" height="19px" viewBox="0 0 18 19" version="1.1" xmlns="http://www.w3.org/2000/svg" xmlns:xlink="http://www.w3.org/1999/xlink">
    <!-- Generator: Sketch 39.1 (31720) - http://www.bohemiancoding.com/sketch -->
    <title>Page 1</title>
    <desc>Created with Sketch.</desc>
    <defs></defs>
    <g id="Page-1" stroke="none" stroke-width="1" fill="none" fill-rule="evenodd">
        <g id="iPhone-6-Copy-10" transform="translate(-110.000000, -406.000000)" fill="#B4B4B4">
            <g id="Group-18" transform="translate(70.000000, 406.000000)">
                <g id="Group" transform="translate(9.000000, 0.000000)">
                    <g id="Group-9">
                        <g id="Page-1" transform="translate(31.000000, 0.000000)">
                            <path d="M8.90843359,0.789986499 L8.90843359,0.789986499 C5.30593871,0.789986499 2.05726646,2.95246916 0.677911044,6.26901039 C-0.700407782,9.58692879 0.0621767375,13.4033784 2.60942326,15.9425139 C5.15770637,18.4806164 8.98790547,19.2404635 12.3177772,17.8670925 C15.6462669,16.4926886 17.8165403,13.2556782 17.8165403,9.66611538 C17.8165403,4.76412077 13.8280885,0.789986499 8.90843359,0.789986499 L8.90843359,0.789986499 Z M8.90843359,16.9285591 L8.90843359,16.9285591 C5.96071789,16.9285591 3.3029018,15.1585666 2.17474663,12.4445321 C1.04624593,9.73187469 1.66992743,6.60779131 3.75520045,4.53138104 C5.83909136,2.4535936 8.9744298,1.83215097 11.69686,2.95660064 C14.4206723,4.08070602 16.1970416,6.72898123 16.1970416,9.66611538 C16.1970416,13.6764001 12.933166,16.9285591 8.90843359,16.9285591 L8.90843359,16.9285591 Z" id="Fill-1"></path>
                            <path d="M9.48473411,8.48835723 L9.48473411,5.52953283 C9.48473411,4.45362799 7.86523541,4.45362799 7.86523541,5.52953283 L7.86523541,9.29502764 C7.86523541,9.74019403 8.22838735,10.1020423 8.67515752,10.1020423 L13.803858,10.1020423 C14.8839845,10.1020423 14.8839845,8.48835723 13.803858,8.48835723 L9.48473411,8.48835723 Z" id="Fill-2"></path>
                        </g>
                    </g>
                </g>
            </g>
        </g>
    </g>
</svg>