<?xml version="1.0" encoding="UTF-8" standalone="no"?>
<svg width="7px" height="10px" viewBox="0 0 7 10" version="1.1" xmlns="http://www.w3.org/2000/svg" xmlns:xlink="http://www.w3.org/1999/xlink">
    <!-- Generator: Sketch 39.1 (31720) - http://www.bohemiancoding.com/sketch -->
    <title>Group 21</title>
    <desc>Created with Sketch.</desc>
    <defs></defs>
    <g id="Page-1" stroke="none" stroke-width="1" fill="none" fill-rule="evenodd">
        <g id="iPhone-6-Copy-9" transform="translate(-148.000000, -714.000000)" fill="#7C7C7C">
            <g id="Group-21" transform="translate(148.000000, 714.000000)">
                <path d="M4.20000005,0.75643845 C4.20000005,1.16301953 3.8753696,1.49273575 3.47494015,1.49273575 C3.07463045,1.49273575 2.75,1.16301953 2.75,0.75643845 C2.75,0.349735747 3.07463045,0.0200195312 3.47494015,0.0200195312 C3.8753696,0.0200195312 4.20000005,0.349735747 4.20000005,0.75643845" id="Fill-19" transform="translate(3.475000, 0.756378) scale(-1, 1) translate(-3.475000, -0.756378) "></path>
                <path d="M0.632403052,4.22530445 C0.834483052,4.1901558 1.64256305,4.04810175 1.68756305,4.03289905 C1.73916305,4.01538553 1.68756305,4.03289905 1.70484305,4.00687202 C1.72176305,3.98072337 2.42724305,2.47322337 2.49612305,2.39441256 C2.56500305,2.31596661 2.75400305,2.11553418 3.02064305,2.02857472 C3.28740305,1.94161526 3.55368305,2.08087202 3.55368305,2.08087202 C3.55368305,2.08087202 4.87788305,2.84757472 4.96368305,2.89135851 C5.04984305,2.93502067 5.12724305,3.09179094 5.12724305,3.09179094 L5.74548305,4.26957472 C5.79612305,4.3341558 5.82660305,4.41588553 5.82660305,4.50466932 C5.82660305,4.71422337 5.65932305,4.88376391 5.45256305,4.88376391 C5.27580305,4.88376391 5.12820305,4.75934499 5.08932305,4.59308824 L4.51272305,3.48803418 L4.15176305,3.28322337 C4.17756305,3.36166932 4.50852305,4.99589905 4.50852305,4.99589905 L4.84368305,6.93053418 L6.01884305,8.36518283 C6.10320305,8.44508824 6.15660305,8.55856121 6.15660305,8.68492607 C6.15660305,8.92634499 5.96352305,9.12203418 5.72532305,9.12203418 C5.58048305,9.12203418 5.45208305,9.04893959 5.37384305,8.9376558 C5.15868305,8.6811558 4.07580305,7.39135851 3.97128305,7.26535851 C3.85500305,7.12622337 3.82500305,7.05641256 3.80820305,6.96470986 C3.79128305,6.87300715 3.59772305,5.69242607 3.59772305,5.69242607 L2.48724305,6.81693959 L2.48724305,8.79949364 L2.48484305,8.79949364 C2.46240305,9.02133148 2.27772305,9.19476391 2.05272305,9.19476391 C1.82820305,9.19476391 1.64304305,9.02181797 1.62096305,8.79949364 L1.61868305,8.79949364 C1.61868305,8.79949364 1.61868305,8.78526391 1.61916305,8.76093959 C1.61916305,8.75862878 1.61868305,8.75668283 1.61868305,8.75437202 C1.61868305,8.7514531 1.61916305,8.7486558 1.61916305,8.74573688 C1.62096305,8.44362878 1.63032305,6.93953418 1.61868305,6.59887202 C1.60596305,6.21977742 1.73916305,6.13707472 1.76916305,6.10241256 C1.79916305,6.0677504 2.83548305,4.95223688 2.83548305,4.95223688 L2.60772305,3.83246661 C2.60772305,3.83246661 2.31096305,4.42062878 2.28096305,4.48618283 C2.25096305,4.5512504 2.15628305,4.66910175 2.05740305,4.69087202 C1.95852305,4.71276391 0.724323052,4.96549364 0.724323052,4.96549364 L0.723843052,4.96269634 C0.705483052,4.96549364 0.687243052,4.96841256 0.668523052,4.96841256 C0.465003052,4.96841256 0.300003052,4.80118283 0.300003052,4.59491256 C0.300003052,4.40116932 0.446283052,4.24391256 0.632403052,4.22530445 L0.632403052,4.22530445 Z" id="Fill-20" transform="translate(3.228303, 5.597382) scale(-1, 1) translate(-3.228303, -5.597382) "></path>
            </g>
        </g>
    </g>
</svg>