<?xml version="1.0" encoding="UTF-8" standalone="no"?>
<svg width="6px" height="9px" viewBox="0 0 6 9" version="1.1" xmlns="http://www.w3.org/2000/svg" xmlns:xlink="http://www.w3.org/1999/xlink">
    <!-- Generator: Sketch 39.1 (31720) - http://www.bohemiancoding.com/sketch -->
    <title>Page 1</title>
    <desc>Created with Sketch.</desc>
    <defs></defs>
    <g id="Page-1" stroke="none" stroke-width="1" fill="none" fill-rule="evenodd" opacity="0.221256996">
        <g id="iPhone-6-Copy-10" transform="translate(-150.000000, -764.000000)" fill="#000000">
            <g id="Group-12" transform="translate(37.000000, 518.000000)">
                <g id="Group-2" transform="translate(113.000000, 243.000000)">
                    <g id="Page-1" transform="translate(0.000000, 3.000000)">
                        <g id="Group" transform="translate(3.000000, 4.500000) scale(-1, 1) translate(-3.000000, -4.500000) ">
                            <path d="M3.41484,0.751621622 C3.41484,1.1582027 3.08952,1.48791892 2.68824,1.48791892 C2.28708,1.48791892 1.96176,1.1582027 1.96176,0.751621622 C1.96176,0.344918919 2.28708,0.0152027027 2.68824,0.0152027027 C3.08952,0.0152027027 3.41484,0.344918919 3.41484,0.751621622" id="Fill-19"></path>
                            <path d="M0.42516,3.92035135 C0.62724,3.8852027 1.43532,3.74314865 1.48032,3.72794595 C1.53192,3.71043243 1.48032,3.72794595 1.4976,3.70191892 C1.51452,3.67577027 2.22,2.16827027 2.28888,2.08945946 C2.35776,2.01101351 2.54676,1.81058108 2.8134,1.72362162 C3.08016,1.63666216 3.34644,1.77591892 3.34644,1.77591892 C3.34644,1.77591892 4.67064,2.54262162 4.75644,2.58640541 C4.8426,2.63006757 4.92,2.78683784 4.92,2.78683784 L5.53824,3.96462162 C5.58888,4.0292027 5.61936,4.11093243 5.61936,4.19971622 C5.61936,4.40927027 5.45208,4.57881081 5.24532,4.57881081 C5.06856,4.57881081 4.92096,4.45439189 4.88208,4.28813514 L4.30548,3.18308108 L3.94452,2.97827027 C3.97032,3.05671622 4.30128,4.69094595 4.30128,4.69094595 L4.63644,6.62558108 L5.8116,8.06022973 C5.89596,8.14013514 5.94936,8.25360811 5.94936,8.37997297 C5.94936,8.62139189 5.75628,8.81708108 5.51808,8.81708108 C5.37324,8.81708108 5.24484,8.74398649 5.1666,8.6327027 C4.95144,8.3762027 3.86856,7.08640541 3.76404,6.96040541 C3.64776,6.82127027 3.61776,6.75145946 3.60096,6.65975676 C3.58404,6.56805405 3.39048,5.38747297 3.39048,5.38747297 L2.28,6.51198649 L2.28,8.49454054 L2.2776,8.49454054 C2.25516,8.71637838 2.07048,8.88981081 1.84548,8.88981081 C1.62096,8.88981081 1.4358,8.71686486 1.41372,8.49454054 L1.41144,8.49454054 C1.41144,8.49454054 1.41144,8.48031081 1.41192,8.45598649 C1.41192,8.45367568 1.41144,8.45172973 1.41144,8.44941892 C1.41144,8.4465 1.41192,8.4437027 1.41192,8.44078378 C1.41372,8.13867568 1.42308,6.63458108 1.41144,6.29391892 C1.39872,5.91482432 1.53192,5.83212162 1.56192,5.79745946 C1.59192,5.7627973 2.62824,4.64728378 2.62824,4.64728378 L2.40048,3.52751351 C2.40048,3.52751351 2.10372,4.11567568 2.07372,4.18122973 C2.04372,4.2462973 1.94904,4.36414865 1.85016,4.38591892 C1.75128,4.40781081 0.51708,4.66054054 0.51708,4.66054054 L0.5166,4.65774324 C0.49824,4.66054054 0.48,4.66345946 0.46128,4.66345946 C0.25776,4.66345946 0.09276,4.49622973 0.09276,4.28995946 C0.09276,4.09621622 0.23904,3.93895946 0.42516,3.92035135 L0.42516,3.92035135 Z" id="Fill-20"></path>
                        </g>
                    </g>
                </g>
            </g>
        </g>
    </g>
</svg>